<?xml version="1.0" encoding="utf-8"?>
<!-- Generator: Adobe Illustrator 16.0.3, SVG Export Plug-In . SVG Version: 6.00 Build 0)  -->
<!DOCTYPE svg PUBLIC "-//W3C//DTD SVG 1.1//EN" "http://www.w3.org/Graphics/SVG/1.1/DTD/svg11.dtd">
<svg version="1.1" xmlns="http://www.w3.org/2000/svg" xmlns:xlink="http://www.w3.org/1999/xlink" x="0px" y="0px" width="20px"
	 height="20px" viewBox="0 0 20 20" style="enable-background:new 0 0 20 20;" xml:space="preserve">
<style type="text/css">
<![CDATA[
	.st0{fill:#14487E;}
	.st1{fill:none;stroke:#14487E;stroke-width:0.8504;stroke-miterlimit:10;}
	.st2{fill:none;stroke:#00457C;stroke-miterlimit:10;}
	.st3{fill:none;stroke:#14487E;stroke-width:0.2835;stroke-miterlimit:10;}
	.st4{fill:none;stroke:#14487E;stroke-width:0.9921;stroke-linejoin:round;stroke-miterlimit:10;}
	.st5{fill:none;stroke:#14487E;stroke-width:0.9921;stroke-miterlimit:10;}
	.st6{fill:none;stroke:#14487E;stroke-width:1.1339;stroke-linecap:round;stroke-miterlimit:10;}
	.st7{fill:none;stroke:#14487E;stroke-width:0.7087;stroke-miterlimit:10;}
	.st8{fill:#F99D33;}
	.st9{fill:#FFFFFF;stroke:#14487E;stroke-width:0.9921;stroke-miterlimit:10;}
	.st10{fill:#14487E;stroke:#14487E;stroke-width:0.2835;stroke-miterlimit:10;}
	.st11{fill:#FFFFFF;}
	.st12{fill:none;stroke:#14487E;stroke-miterlimit:10;}
	.st13{fill:none;stroke:#14487E;stroke-width:0.8504;stroke-linejoin:round;stroke-miterlimit:10;}
	.st14{fill:#FFFFFF;stroke:#00457C;stroke-miterlimit:10;}
	.st15{fill-rule:evenodd;clip-rule:evenodd;fill:#FFFFFF;}
	.st16{fill:none;stroke:#14487E;stroke-linecap:round;stroke-linejoin:round;stroke-miterlimit:10;}
]]>
</style>
<g id="Ebene_1">
	<g>
		<g>
			<path class="st0" d="M7.9,15.8c-2,0-4.1-0.8-5.6-2.3c-3.1-3.1-3.1-8.1,0-11.2c3.1-3.1,8.1-3.1,11.2,0c3.1,3.1,3.1,8.1,0,11.2
				C12,15,9.9,15.8,7.9,15.8z M7.9,1.1c-1.8,0-3.5,0.7-4.8,2c-2.7,2.7-2.7,7,0,9.7c2.7,2.7,7,2.7,9.7,0c2.7-2.7,2.7-7,0-9.7
				C11.4,1.7,9.7,1.1,7.9,1.1z"/>
		</g>
		<g>
			<path class="st0" d="M19.5,20c-0.1,0-0.3-0.1-0.4-0.2l-6-6c-0.2-0.2-0.2-0.5,0-0.7s0.5-0.2,0.7,0l6,6c0.2,0.2,0.2,0.5,0,0.7
				C19.7,19.9,19.6,20,19.5,20z"/>
		</g>
	</g>
</g>
<g id="Ebene_2">
</g>
<g id="Pfeile">
</g>
</svg>
