<?xml version="1.0" encoding="utf-8"?>
<!-- Generator: Adobe Illustrator 16.0.3, SVG Export Plug-In . SVG Version: 6.00 Build 0)  -->
<!DOCTYPE svg PUBLIC "-//W3C//DTD SVG 1.1//EN" "http://www.w3.org/Graphics/SVG/1.1/DTD/svg11.dtd">
<svg version="1.1" id="Layer_1" xmlns="http://www.w3.org/2000/svg" xmlns:xlink="http://www.w3.org/1999/xlink" x="0px" y="0px"
	 width="200px" height="42.7px" viewBox="0 0 200 42.7" style="enable-background:new 0 0 200 42.7;" xml:space="preserve">
<style type="text/css">
<![CDATA[
	.st0{fill:none;stroke:#000000;stroke-width:0;stroke-linecap:round;stroke-linejoin:round;stroke-miterlimit:10;}
	.st1{fill:#14487E;}
	.st2{fill:#F99D33;}
]]>
</style>
<g id="INSERT">
	<g id="SPLINE">
		<path class="st0" d="M96.4,35.3V16.9c0-1.4-1.8-1.7-1.8-1.7h-3.9v27.6h21.6c0,0,1.8,0.2,1.8-1.9v-3.5H98.6
			C96,37.3,96.4,35.3,96.4,35.3z"/>
	</g>
	<g id="HATCH">
		<path class="st1" d="M96.4,35.3V16.9c0-1.4-1.8-1.7-1.8-1.7h-3.9v27.6h21.6c0,0,1.8,0.2,1.8-1.9v-3.5H98.6
			C96,37.3,96.4,35.3,96.4,35.3z"/>
	</g>
	<g id="SPLINE_1_">
		<path class="st0" d="M26.9,27.9c0.2-0.2,0.3-0.3,0.5-0.5c0.9-1.2,1.4-2.8,1.4-4.5c0-2.3-1-4.4-2.7-5.9c-2.3-1.9-4.8-1.9-6.9-1.9
			H2.9C0.3,15.1,0,17,0,17v25.7h20.5c2.8,0,5-0.6,6.6-1.8c1.8-1.5,2.9-3.8,2.9-6.5C30,31.7,28.8,29.3,26.9,27.9z"/>
	</g>
	<g id="SPLINE_2_">
		<path class="st0" d="M5.8,21.9c0-1.3,1.1-1.4,2.2-1.4h11.3c1.6,0,2.4,0.2,2.7,0.4c0.5,0.3,1,1.1,1,2.1c0,0.5-0.1,1.2-0.7,1.7
			c-0.8,0.8-2.2,0.9-3.4,0.9H5.8C5.8,25.6,5.8,22.8,5.8,21.9z"/>
	</g>
	<g id="SPLINE_3_">
		<path class="st0" d="M23.5,36.4c-0.7,0.8-1.9,0.9-3,0.9H5.8v-6.2h12.9c3.2,0,4.3,0.6,4.6,1l0.1,0.1c0.1,0.1,0.8,0.8,0.8,2.2
			C24.2,35.6,23.6,36.2,23.5,36.4z"/>
	</g>
	<g id="HATCH_1_">
		<path class="st1" d="M26.9,27.9c0.1-0.1,0.3-0.3,0.5-0.5c0.9-1.2,1.4-2.8,1.4-4.5c0-2.3-1-4.4-2.7-5.8c-2.3-1.9-4.8-1.9-6.9-1.9
			H2.9C0.3,15.1,0,17,0,17v25.7h20.5c2.8,0,5.1-0.6,6.6-1.8c1.8-1.5,2.9-3.8,2.9-6.5C30,31.7,28.8,29.3,26.9,27.9z M5.8,21.9
			c0-1.3,1.1-1.4,2.2-1.4h11.3c1.6,0,2.4,0.3,2.7,0.4c0.5,0.3,1,1.1,1,2.1c0,0.5-0.1,1.2-0.7,1.7c-0.8,0.8-2.2,0.8-3.4,0.8h-13
			C5.8,25.6,5.8,22.8,5.8,21.9z M23.5,36.4c-0.7,0.8-1.9,0.9-3,0.9H5.8v-6.2h12.9c3.2,0,4.3,0.6,4.6,1c0.3,0.3,0.9,0.9,0.9,2.4
			C24.2,35.6,23.6,36.3,23.5,36.4z"/>
	</g>
	<g id="SPLINE_4_">
		<path class="st0" d="M121.7,31h17.8c1.5,0,1.4-1.3,1.4-1.3v-4.1h-19.2v-2.9v-0.2c0-0.2,0-0.3,0-0.5c0-1.3,1.1-1.4,2.1-1.4h0.7
			l0.5,0h15.9c0,0,1.6,0.1,1.6-1.5v-3.9h-24c-2.8,0-2.6,1.9-2.6,1.9v25.7H142c0,0,1.5,0.1,1.5-1.5v-3.9h-21.8V31z"/>
	</g>
	<g id="HATCH_2_">
		<path class="st1" d="M121.7,31h17.8c1.5,0,1.4-1.3,1.4-1.3v-4.1h-19.2v-2.9v-0.2c0-0.2,0-0.4,0-0.5c0-1.3,1.1-1.4,2.2-1.4h0.7h0.5
			h15.9c0,0,1.6,0.1,1.6-1.5v-3.9h-24c-2.8,0-2.6,1.9-2.6,1.9v25.7H142c0,0,1.5,0.1,1.5-1.5v-3.9h-21.8V31z"/>
	</g>
	<g id="SPLINE_5_">
		<path class="st0" d="M63.4,37.7c3.5,0,8.9,0,11,0c0.2,0,0.5,0,0.8,0c2.2-0.1,7.2,0.1,7.7-2.7c0-0.2,0.1-0.3,0-0.4
			c-0.1-1.1-0.6-3.1-8.1-3.4c-4.1-0.2-7-0.3-9.5-1.2c-3-1.1-4.5-3.2-4.6-6.2l0-0.3c0-5.1,4.2-7.9,11.7-8.3c0.4,0,0.9,0,1.3,0l0.5,0
			l0.2,0c3.5,0,6.9,0,12.8,0v3.5c0,1.9-2.2,1.7-2.2,1.7c-4.8,0-7.9,0-10.2,0c-0.2,0-0.5,0-0.8,0l-0.3,0c-0.4,0-0.9,0-1.4,0
			c-2.2,0.1-5.9,0.5-5.9,2.6c0,0.2,0,0.3,0,0.4c0.2,0.8,1.1,1.8,7.3,2.1l0.4,0c4.2,0.2,7.5,0.8,10.1,1.9c3,1.3,4.6,3.6,4.6,7
			c0,0.2,0,0.3,0,0.5v0.1l0,0.3c-0.3,3-1.8,7.2-12.6,7.5l0,0l-0.4,0l-0.4,0c-3.8,0-7.5,0-12,0c0,0-1.8-3.6-1.8-3.6
			S61,37.7,63.4,37.7z"/>
	</g>
	<g id="HATCH_3_">
		<path class="st1" d="M63.4,37.7c3.5,0,8.9,0,11,0c0.2,0,0.5,0,0.8,0c2.2-0.1,7.2,0.1,7.7-2.7c0-0.2,0.1-0.3,0.1-0.4
			c-0.1-1.1-0.6-3.1-8.1-3.4c-4.1-0.1-7-0.3-9.5-1.2c-3-1.1-4.5-3.2-4.6-6.2l0-0.3c0-5.1,4.2-8,11.7-8.3c0.4,0,0.9,0,1.3,0h0.5h0.2
			c3.5,0,6.9,0,12.8,0v3.5c0,1.9-2.2,1.7-2.2,1.7c-4.8,0-7.9,0-10.2,0c-0.2,0-0.5,0-0.8,0l-0.3,0c-0.4,0-0.9,0-1.4,0
			c-2.2,0.1-5.9,0.5-5.9,2.6c0,0.2,0,0.3,0,0.4c0.2,0.8,1.1,1.8,7.3,2.1l0.4,0c4.2,0.1,7.5,0.7,10.1,1.9c3,1.3,4.6,3.6,4.6,6.9
			c0,0.2,0,0.4,0,0.6c0,0.1,0,0.4,0,0.4c-0.3,3-1.8,7.2-12.6,7.4c-0.1,0-0.4,0-0.4,0l-0.4,0c-3.8,0-7.5,0-12,0l-1.8-3.6
			C61.6,39.1,61,37.7,63.4,37.7z"/>
	</g>
	<g id="SPLINE_6_">
		<path class="st0" d="M186.9,5.9c-2.5-2.5-5.8-2.8-5.8-2.8c-6.6,2.8-13.2,6.8-13.2,6.8s9.9-4.5,20.1-2.4
			C187.9,7.5,187.4,6.4,186.9,5.9z"/>
	</g>
	<g id="HATCH_4_">
		<path class="st2" d="M186.9,5.9c-2.5-2.5-5.8-2.8-5.8-2.8c-6.6,2.8-13.2,6.8-13.2,6.8s9.9-4.5,20.1-2.4
			C187.9,7.5,187.4,6.4,186.9,5.9z"/>
	</g>
	<g id="SPLINE_7_">
		<path class="st0" d="M199.2,2.9c-2.9-4.4-10.8-2.9-15.8-1.3c1.4,0.4,9.4,1.1,6.5,13.2c-1.7,7.2-6.9,15.7-6.7,16.1
			C183.6,31.5,204.3,10.5,199.2,2.9z"/>
	</g>
	<g id="HATCH_5_">
		<path class="st1" d="M199.2,2.9c-2.9-4.4-10.7-2.9-15.8-1.3c1.4,0.4,9.4,1.1,6.5,13.2c-1.7,7.2-6.9,15.7-6.7,16.1
			C183.6,31.5,204.3,10.6,199.2,2.9z"/>
	</g>
	<g id="SPLINE_8_">
		<path class="st0" d="M167.7,31.5c1.2-0.3,2.5-0.8,3.7-1.6c0.7-0.6,1.3-1.2,1.7-2c0-0.1,0.1-0.1,0.1-0.2c0.7-1.3,1.1-2.7,1.1-4.4
			c0-3-1.5-5.8-3.9-7.2c-2.1-1.1-4.4-1.1-6.1-1.1H148c-2.1,0-2.2,1.6-2.2,1.6v26h4.2c0,0,1.5,0,1.5-1.7v-9h7.1c0,0,0.1,0,0.3,0
			c0.1,0,0.6,0,1.3,0l7.5,8.5l0,0c0.5,0.6,0.9,1,0.9,1s1,1.2,3.1,1.2h5.8L167.7,31.5z"/>
	</g>
	<g id="SPLINE_9_">
		<path class="st0" d="M151.6,26.5v-4.4c0,0-0.2-1.5,1.9-1.5h10.9c1.2,0,2.3,0,3.1,0.6c0.4,0.3,1,1.1,1,2.2c0,0.8-0.3,1.6-0.7,2.1
			c-0.9,1-2.6,1-4.8,1H151.6z"/>
	</g>
	<g id="HATCH_6_">
		<path class="st1" d="M167.7,31.5c1.2-0.3,2.5-0.7,3.7-1.6c0.7-0.6,1.3-1.2,1.7-2c0.8-1.4,1.2-2.9,1.2-4.5c0-3-1.5-5.8-3.9-7.2
			c-2.1-1.1-4.4-1.1-6.1-1.1H148c-2.1,0-2.2,1.6-2.2,1.6v26h4.3c0,0,1.5,0,1.5-1.7v-9.1h7.1c0,0,0.1,0,0.3,0c0.1,0,0.6,0,1.3,0
			l7.5,8.6c0.6,0.6,0.9,1,0.9,1s1,1.3,3.1,1.2h5.8L167.7,31.5z M151.6,26.4v-4.4c0,0-0.2-1.5,1.9-1.5h10.9c1.2,0,2.3,0,3.1,0.6
			c0.4,0.3,1,1.1,1,2.2c0,0.8-0.3,1.6-0.7,2.1c-0.9,1-2.6,1-4.8,1H151.6z"/>
	</g>
	<g id="SPLINE_10_">
		<path class="st0" d="M47.1,15.1h-1.8h-0.5c-2.4,0-2.6,0.4-3.4,2c-1.6,3.3-4.9,9.3-7.7,14.9c1.5-1.2,3.9-2.4,7.4-2.6l3.6-6.6
			l4.2,8.3h-8.2l0,0c-4.9,0.4-7.3,2.9-8.1,4c-1.9,3.8-3.3,6.7-3.3,6.7s-0.6,1,0.6,1h5.1l2.1-4.3c0,0,0.9-2,3.4-2h11.1
			c0,0,1.9,3.7,2.4,4.8c0.4,0.8,0.7,1.5,2.3,1.5h0.9c1.4,0,2.7,0,3.8,0L47.1,15.1z"/>
	</g>
	<g id="HATCH_7_">
		<path class="st1" d="M47.1,15.1h-1.8h-0.5c-2.5,0-2.6,0.4-3.4,2c-1.6,3.4-4.9,9.3-7.7,14.9c1.5-1.2,3.9-2.4,7.4-2.6l3.6-6.6
			l4.1,8.3h-8.2c-4.8,0.4-7.3,2.9-8.1,3.9c-1.9,3.8-3.3,6.7-3.3,6.7s-0.6,1,0.6,1h5.1l2.1-4.3c0,0,0.9-2,3.4-2h11
			c0,0,1.9,3.7,2.4,4.8c0.4,0.8,0.7,1.5,2.3,1.5h0.9c1.4,0,2.7,0,3.8,0L47.1,15.1z"/>
	</g>
</g>
</svg>
