<?xml version="1.0" encoding="utf-8"?>
<!-- Generator: Adobe Illustrator 16.0.3, SVG Export Plug-In . SVG Version: 6.00 Build 0)  -->
<!DOCTYPE svg PUBLIC "-//W3C//DTD SVG 1.1//EN" "http://www.w3.org/Graphics/SVG/1.1/DTD/svg11.dtd">
<svg version="1.1" xmlns="http://www.w3.org/2000/svg" xmlns:xlink="http://www.w3.org/1999/xlink" x="0px" y="0px" width="20px"
	 height="20px" viewBox="0 0 20 20" style="enable-background:new 0 0 20 20;" xml:space="preserve">
<style type="text/css">
<![CDATA[
	.st0{fill:#14487E;}
	.st1{fill:none;stroke:#14487E;stroke-width:1.1339;stroke-linecap:round;stroke-miterlimit:10;}
	.st2{fill:#FFFFFF;}
	.st3{fill-rule:evenodd;clip-rule:evenodd;fill:#FFFFFF;}
]]>
</style>
<g id="Ebene_1">
	<g id="Welcome_2_">
		<g id="Artboard-23-Copy-15_1_">
			<path id="Combined-Shape_2_" class="st0" d="M0.1,20c0,0-0.7-1.9,1-2.4c1.7-0.5,3.4-1.1,3.4-3.1c0,0-1.7-0.8-1.7-3.8
				c0-2.7,1.3-4.2,3.5-4.2c2.2,0,3.4,1.7,3.4,4.6c0,0-0.4,2.8-1.6,3.5c0.1,0.5-0.2,2.2,3.6,2.8c1.2,0.1,1.2,1.3,1.2,2.6H0.1z
				 M13.9,20H20c0-1.1,0-2.1-1.1-2.2c-3.3-0.5-3.1-2-3.1-2.4c1-0.6,1.4-3,1.4-3c0-2.5-1.1-3.9-2.9-3.9c-1.9,0-3,1.4-3,3.6
				c0,2.6,1.5,3.2,1.5,3.2c0,0.8-0.3,1.2-0.6,1.4c0,0,1.3,0.3,1.6,1.4C14,18.9,13.9,20,13.9,20z"/>
		</g>
	</g>
	<g>
		<path class="st3" d="M17.2,2.7L17.2,2.7L17.2,2.7c0.4,0.4,0.5,0.9,0.5,1.4c0,0.5-0.2,1-0.6,1.3l0,0l0,0l0,0l0,0
			c-0.4,0.4-0.9,0.5-1.4,0.5c-0.5,0-1-0.2-1.3-0.6l0,0l0,0l0,0c-0.4-0.4-0.5-0.9-0.5-1.4c0-0.5,0.2-1,0.6-1.3l0,0l0,0l0,0
			c0.4-0.4,0.9-0.5,1.4-0.5C16.3,2.1,16.8,2.3,17.2,2.7L17.2,2.7L17.2,2.7z M18.6,6.1c0.1,0.1,0.1,0.2,0,0.3L17.9,7
			c-0.1,0.1-0.2,0.1-0.3,0c-0.2-0.2-0.3-0.4-0.5-0.5c-0.1,0.1-0.3,0.1-0.4,0.2c-0.1,0.1-0.3,0.1-0.4,0.1c0,0.2,0.1,1-0.3,0.9
			c-0.2,0-1.1,0.1-1.1-0.3l0-0.7c-0.3-0.1-0.6-0.2-0.8-0.4l-0.5,0.5c0,0-0.2,0.1-0.3,0c-0.2-0.2-0.4-0.4-0.6-0.6c0,0-0.1-0.2,0-0.3
			c0.2-0.2,0.4-0.3,0.5-0.5c-0.1-0.1-0.1-0.3-0.2-0.4C13,4.8,13,4.7,13,4.6l-0.7,0c-0.1,0-0.2-0.1-0.2-0.2l0-0.9
			c0-0.1,0.1-0.2,0.2-0.2c0.2,0,0.5,0,0.7,0c0.1-0.3,0.2-0.6,0.4-0.8l-0.5-0.5c-0.1-0.1-0.1-0.2,0-0.3L13.5,1c0,0,0.2-0.1,0.3,0
			c0.2,0.2,0.3,0.4,0.5,0.5c0.1-0.1,0.3-0.1,0.4-0.2s0.3-0.1,0.4-0.1l0-0.7c0-0.1,0.1-0.2,0.2-0.2c0.3,0,1.1-0.1,1.1,0.3
			c0,0.2,0,0.5,0,0.7c0.3,0.1,0.6,0.2,0.8,0.4l0.5-0.5c0,0,0.2-0.1,0.3,0c0.2,0.2,0.9,0.7,0.6,1l-0.5,0.5c0.1,0.3,0.3,0.5,0.3,0.8
			l0.7,0c0.1,0,0.2,0.1,0.2,0.2c0,0.3,0.1,1.1-0.3,1.1c-0.2,0-0.5,0-0.7,0c-0.1,0.3-0.2,0.6-0.4,0.8L18.6,6.1z"/>
		<path class="st3" d="M10.2,1.9L10.2,1.9L10.2,1.9c0.3,0.2,0.5,0.6,0.6,0.9c0.1,0.4,0,0.8-0.2,1.1l0,0l0,0l0,0l0,0
			c-0.2,0.3-0.6,0.5-1,0.6c-0.4,0.1-0.8,0-1.1-0.2l0,0l0,0l0,0C8.2,4.1,8,3.7,7.9,3.3C7.8,3,7.9,2.6,8.1,2.2l0,0l0,0l0,0
			c0.2-0.3,0.6-0.5,0.9-0.6C9.5,1.6,9.9,1.6,10.2,1.9L10.2,1.9L10.2,1.9z M11.8,4.2c0.1,0.1,0.1,0.2,0,0.2L11.5,5
			c-0.1,0.1-0.2,0.1-0.2,0c-0.2-0.1-0.3-0.2-0.5-0.3c-0.1,0.1-0.2,0.1-0.3,0.2C10.4,5,10.3,5,10.2,5.1c0,0.1,0.2,0.7,0,0.7
			c-0.1,0-0.8,0.2-0.9,0L9.2,5.3C9,5.2,8.8,5.2,8.6,5.1L8.3,5.6c0,0-0.1,0.1-0.2,0C7.8,5.5,7.7,5.4,7.5,5.2c0,0-0.1-0.1,0-0.2
			c0.1-0.2,0.2-0.3,0.3-0.5C7.7,4.4,7.6,4.4,7.5,4.3C7.5,4.2,7.4,4.1,7.4,4L6.8,4.1C6.7,4.1,6.6,4,6.6,3.9L6.5,3.3
			c0-0.1,0-0.2,0.1-0.2C6.8,3,7,3,7.2,3c0-0.2,0.1-0.5,0.1-0.7L6.9,2c-0.1-0.1-0.1-0.2,0-0.2l0.4-0.5c0,0,0.1-0.1,0.2,0
			c0.2,0.1,0.3,0.2,0.5,0.3C8,1.4,8.1,1.3,8.2,1.3c0.1-0.1,0.2-0.1,0.3-0.2L8.4,0.5c0-0.1,0-0.2,0.1-0.2c0.2,0,0.8-0.3,0.9,0
			c0,0.2,0.1,0.4,0.1,0.5c0.2,0,0.5,0.1,0.7,0.1l0.3-0.5c0,0,0.1-0.1,0.2,0c0.2,0.1,0.8,0.4,0.6,0.6L11,1.6c0.2,0.2,0.3,0.4,0.4,0.6
			l0.5-0.1c0.1,0,0.2,0,0.2,0.1c0,0.2,0.3,0.8,0,0.9c-0.2,0-0.4,0.1-0.5,0.1c0,0.2-0.1,0.5-0.1,0.7L11.8,4.2z"/>
	</g>
</g>
<g id="Ebene_2">
</g>
<g id="Pfeile">
</g>
</svg>
