<?xml version="1.0" encoding="utf-8"?>
<!-- Generator: Adobe Illustrator 16.0.3, SVG Export Plug-In . SVG Version: 6.00 Build 0)  -->
<!DOCTYPE svg PUBLIC "-//W3C//DTD SVG 1.1//EN" "http://www.w3.org/Graphics/SVG/1.1/DTD/svg11.dtd">
<svg version="1.1" xmlns="http://www.w3.org/2000/svg" xmlns:xlink="http://www.w3.org/1999/xlink" x="0px" y="0px" width="20px"
	 height="20px" viewBox="0 0 20 20" style="enable-background:new 0 0 20 20;" xml:space="preserve">
<style type="text/css">
<![CDATA[
	.st0{fill:#14487E;}
	.st1{fill:none;stroke:#14487E;stroke-width:1.1339;stroke-linecap:round;stroke-miterlimit:10;}
	.st2{fill:#FFFFFF;}
	.st3{fill-rule:evenodd;clip-rule:evenodd;fill:#FFFFFF;}
]]>
</style>
<g id="Ebene_1">
	<path class="st2" d="M6.2,6c0.3-0.3,0.3-0.8,0-1.1c-0.3-0.3-0.7-0.3-1.1,0L0,10l5.1,5.1c0.3,0.3,0.7,0.3,1.1,0
		c0.3-0.3,0.3-0.7,0-1.1l-4-4L6.2,6z"/>
	<path class="st2" d="M13.8,14c-0.3,0.3-0.3,0.7,0,1.1c0.3,0.3,0.8,0.3,1.1,0L20,10l-5.1-5.1c-0.3-0.3-0.7-0.3-1.1,0
		c-0.3,0.3-0.3,0.7,0,1.1l4,4L13.8,14z"/>
	<path class="st2" d="M7.9,16.5c-0.1,0-0.1,0-0.2,0c-0.3-0.1-0.4-0.4-0.3-0.7l4.3-11.8c0.1-0.3,0.4-0.4,0.7-0.3
		c0.3,0.1,0.4,0.4,0.3,0.7L8.4,16.1C8.3,16.3,8.1,16.5,7.9,16.5z"/>
</g>
<g id="Ebene_2">
</g>
<g id="Pfeile">
</g>
</svg>
