<?xml version="1.0" encoding="utf-8"?>
<!-- Generator: Adobe Illustrator 16.0.3, SVG Export Plug-In . SVG Version: 6.00 Build 0)  -->
<!DOCTYPE svg PUBLIC "-//W3C//DTD SVG 1.1//EN" "http://www.w3.org/Graphics/SVG/1.1/DTD/svg11.dtd">
<svg version="1.1" xmlns="http://www.w3.org/2000/svg" xmlns:xlink="http://www.w3.org/1999/xlink" x="0px" y="0px" width="20px"
	 height="20px" viewBox="0 0 20 20" style="enable-background:new 0 0 20 20;" xml:space="preserve">
<style type="text/css">
<![CDATA[
	.st0{fill:#14487E;}
	.st1{fill:none;stroke:#14487E;stroke-width:1.1339;stroke-linecap:round;stroke-miterlimit:10;}
	.st2{fill:#FFFFFF;}
	.st3{fill-rule:evenodd;clip-rule:evenodd;fill:#FFFFFF;}
]]>
</style>
<g id="Ebene_1">
	<g>
		<path class="st2" d="M10,0c5.2,0,8,1.5,8.5,2.1C18,2.8,15.2,4.3,10,4.3c-5.2,0-8-1.5-8.5-2.1C2,1.5,4.8,0,10,0z"/>
		<path class="st2" d="M10,5.7c3.7,0,6.8-0.7,8.5-1.8v3.3h0C18,7.8,15.2,9.3,10,9.3c-5.2,0-8-1.5-8.5-2.1h0V3.9
			C3.2,5,6.3,5.7,10,5.7z"/>
		<path class="st2" d="M18.5,17.9L18.5,17.9C18,18.5,15.2,20,10,20c-5.2,0-8-1.5-8.5-2.1h0v-4c1.7,1.1,4.8,1.8,8.5,1.8
			c3.7,0,6.8-0.7,8.5-1.8V17.9z"/>
		<path class="st2" d="M18.5,12.1L18.5,12.1c-0.5,0.7-3.3,2.1-8.5,2.1c-5.2,0-8-1.5-8.5-2.1h0V8.9c1.7,1.1,4.8,1.8,8.5,1.8
			c3.7,0,6.8-0.7,8.5-1.8V12.1z"/>
	</g>
</g>
<g id="Ebene_2">
</g>
<g id="Pfeile">
</g>
</svg>
