<?xml version="1.0" encoding="utf-8"?>
<!-- Generator: Adobe Illustrator 16.0.3, SVG Export Plug-In . SVG Version: 6.00 Build 0)  -->
<!DOCTYPE svg PUBLIC "-//W3C//DTD SVG 1.1//EN" "http://www.w3.org/Graphics/SVG/1.1/DTD/svg11.dtd">
<svg version="1.1" xmlns="http://www.w3.org/2000/svg" xmlns:xlink="http://www.w3.org/1999/xlink" x="0px" y="0px" width="20px"
	 height="20px" viewBox="0 0 20 20" style="enable-background:new 0 0 20 20;" xml:space="preserve">
<style type="text/css">
<![CDATA[
	.st0{fill:none;stroke:#14487E;stroke-width:1.5;stroke-linecap:round;stroke-miterlimit:10;}
	.st1{fill:#14487E;}
	.st2{fill:none;stroke:#14487E;stroke-width:0.8504;stroke-miterlimit:10;}
	.st3{fill:none;stroke:#00457C;stroke-miterlimit:10;}
	.st4{fill:none;stroke:#14487E;stroke-width:0.2835;stroke-miterlimit:10;}
	.st5{fill:none;stroke:#14487E;stroke-width:0.9921;stroke-linejoin:round;stroke-miterlimit:10;}
	.st6{fill:none;stroke:#14487E;stroke-width:0.9921;stroke-miterlimit:10;}
	.st7{fill:none;stroke:#14487E;stroke-width:1.1339;stroke-linecap:round;stroke-miterlimit:10;}
	.st8{fill:none;stroke:#14487E;stroke-width:0.7087;stroke-miterlimit:10;}
	.st9{fill:#F99D33;}
	.st10{fill:#FFFFFF;stroke:#14487E;stroke-width:0.9921;stroke-miterlimit:10;}
	.st11{fill:#14487E;stroke:#14487E;stroke-width:0.2835;stroke-miterlimit:10;}
	.st12{fill:#FFFFFF;}
	.st13{fill:none;stroke:#14487E;stroke-miterlimit:10;}
	.st14{fill:#FFFFFF;stroke:#00457C;stroke-miterlimit:10;}
	.st15{fill:none;stroke:#14487E;stroke-linecap:round;stroke-linejoin:round;stroke-miterlimit:10;}
]]>
</style>
<g id="Ebene_1">
	<g>
		<path class="st1" d="M9.7,20H0V0h9.7c1.1,0,2,0.9,2,2v16C11.7,19.1,10.8,20,9.7,20z"/>
		<g>
			<path class="st12" d="M4.3,10.5l-2.2,2.2c-0.2,0.2-0.2,0.5,0,0.7c0.2,0.2,0.5,0.2,0.7,0L6.3,10L2.8,6.5c-0.2-0.2-0.5-0.2-0.7,0
				C1.9,6.8,1.9,7,2.1,7.3l2.2,2.2L4.8,10L4.3,10.5z"/>
			<path class="st12" d="M7.9,10.5l-2.2,2.2c-0.2,0.2-0.2,0.5,0,0.7c0.2,0.2,0.5,0.2,0.7,0L9.8,10L6.3,6.5c-0.2-0.2-0.5-0.2-0.7,0
				C5.4,6.8,5.4,7,5.6,7.3l2.2,2.2L8.4,10L7.9,10.5z"/>
		</g>
	</g>
</g>
<g id="Ebene_2">
</g>
<g id="Pfeile">
</g>
</svg>
