<?xml version="1.0" encoding="utf-8"?>
<!-- Generator: Adobe Illustrator 16.0.3, SVG Export Plug-In . SVG Version: 6.00 Build 0)  -->
<!DOCTYPE svg PUBLIC "-//W3C//DTD SVG 1.1//EN" "http://www.w3.org/Graphics/SVG/1.1/DTD/svg11.dtd">
<svg version="1.1" xmlns="http://www.w3.org/2000/svg" xmlns:xlink="http://www.w3.org/1999/xlink" x="0px" y="0px" width="20px"
	 height="20px" viewBox="0 0 20 20" style="enable-background:new 0 0 20 20;" xml:space="preserve">
<style type="text/css">
<![CDATA[
	.st0{fill:none;stroke:#14487E;stroke-width:1.5;stroke-linecap:round;stroke-miterlimit:10;}
	.st1{fill:#14487E;}
	.st2{fill:none;stroke:#14487E;stroke-width:0.8504;stroke-miterlimit:10;}
	.st3{fill:none;stroke:#00457C;stroke-miterlimit:10;}
	.st4{fill:none;stroke:#14487E;stroke-width:0.2835;stroke-miterlimit:10;}
	.st5{fill:none;stroke:#14487E;stroke-width:0.9921;stroke-linejoin:round;stroke-miterlimit:10;}
	.st6{fill:none;stroke:#14487E;stroke-width:0.9921;stroke-miterlimit:10;}
	.st7{fill:none;stroke:#14487E;stroke-width:1.1339;stroke-linecap:round;stroke-miterlimit:10;}
	.st8{fill:none;stroke:#14487E;stroke-width:0.7087;stroke-miterlimit:10;}
	.st9{fill:#F99D33;}
	.st10{fill:#FFFFFF;stroke:#14487E;stroke-width:0.9921;stroke-miterlimit:10;}
	.st11{fill:#14487E;stroke:#14487E;stroke-width:0.2835;stroke-miterlimit:10;}
	.st12{fill:#FFFFFF;}
	.st13{fill:none;stroke:#14487E;stroke-miterlimit:10;}
	.st14{fill:none;stroke:#14487E;stroke-width:0.8504;stroke-linejoin:round;stroke-miterlimit:10;}
	.st15{fill:#FFFFFF;stroke:#00457C;stroke-miterlimit:10;}
	.st16{fill:none;stroke:#14487E;stroke-linecap:round;stroke-linejoin:round;stroke-miterlimit:10;}
]]>
</style>
<g id="Ebene_1">
	<g>
		<path class="st15" d="M13.6,5.6v9.8c0,0.5-0.4,0.8-0.9,0.8H1.5c-0.5,0-0.9-0.4-0.9-0.8v-14c0-0.5,0.4-0.8,0.9-0.8h6.4L13.6,5.6z"
			/>
		<polyline class="st3" points="7.8,0.3 7.8,5.8 14,5.8 		"/>
	</g>
	<g>
		<path class="st15" d="M19.6,8.9v9.8c0,0.5-0.4,0.8-0.9,0.8H7.5c-0.5,0-0.9-0.4-0.9-0.8v-14c0-0.5,0.4-0.8,0.9-0.8h6.4L19.6,8.9z"
			/>
		<polyline class="st3" points="13.8,3.6 13.8,9.1 20,9.1 		"/>
	</g>
</g>
<g id="Ebene_2">
</g>
<g id="Pfeile">
</g>
</svg>
