<?xml version="1.0" encoding="utf-8"?>
<!-- Generator: Adobe Illustrator 16.0.3, SVG Export Plug-In . SVG Version: 6.00 Build 0)  -->
<!DOCTYPE svg PUBLIC "-//W3C//DTD SVG 1.1//EN" "http://www.w3.org/Graphics/SVG/1.1/DTD/svg11.dtd">
<svg version="1.1" xmlns="http://www.w3.org/2000/svg" xmlns:xlink="http://www.w3.org/1999/xlink" x="0px" y="0px" width="20px"
	 height="20px" viewBox="0 0 20 20" style="enable-background:new 0 0 20 20;" xml:space="preserve">
<style type="text/css">
<![CDATA[
	.st0{fill:none;stroke:#14487E;stroke-width:1.5;stroke-linecap:round;stroke-miterlimit:10;}
	.st1{fill:#14487E;}
	.st2{fill:none;stroke:#14487E;stroke-width:0.8504;stroke-miterlimit:10;}
	.st3{fill:none;stroke:#00457C;stroke-miterlimit:10;}
	.st4{fill:none;stroke:#14487E;stroke-width:0.2835;stroke-miterlimit:10;}
	.st5{fill:none;stroke:#14487E;stroke-width:0.9921;stroke-linejoin:round;stroke-miterlimit:10;}
	.st6{fill:none;stroke:#14487E;stroke-width:0.9921;stroke-miterlimit:10;}
	.st7{fill:none;stroke:#14487E;stroke-width:1.1339;stroke-linecap:round;stroke-miterlimit:10;}
	.st8{fill:none;stroke:#14487E;stroke-width:0.7087;stroke-miterlimit:10;}
	.st9{fill:#F99D33;}
	.st10{fill:#FFFFFF;stroke:#14487E;stroke-width:0.9921;stroke-miterlimit:10;}
	.st11{fill:#14487E;stroke:#14487E;stroke-width:0.2835;stroke-miterlimit:10;}
	.st12{fill:#FFFFFF;}
	.st13{fill:none;stroke:#14487E;stroke-miterlimit:10;}
	.st14{fill:#FFFFFF;stroke:#00457C;stroke-miterlimit:10;}
	.st15{fill:none;stroke:#14487E;stroke-linecap:round;stroke-linejoin:round;stroke-miterlimit:10;}
]]>
</style>
<g id="Ebene_1">
	<path class="st1" d="M12.6,0.5c0,0.3,0.2,0.5,0.5,0.5h5.2L9.7,9.6c-0.2,0.2-0.2,0.5,0,0.7c0.2,0.2,0.5,0.2,0.7,0L19,1.7v5.2
		c0,0.3,0.2,0.5,0.5,0.5S20,7.2,20,6.9V0h-6.9C12.8,0,12.6,0.2,12.6,0.5z"/>
	<path class="st1" d="M16.9,17.3c0,0.9-0.7,1.6-1.6,1.6H2.6c-0.9,0-1.6-0.7-1.6-1.6V4.7c0-0.9,0.7-1.6,1.6-1.6H10V2H2.6
		C1.2,2,0,3.2,0,4.6l0,0v12.7C0,18.8,1.1,20,2.6,20l0,0h12.7c1.5,0,2.6-1.2,2.6-2.6V9.9h-1V17.3z"/>
</g>
<g id="Ebene_2">
</g>
<g id="Pfeile">
</g>
</svg>
