<?xml version="1.0" encoding="utf-8"?>
<!-- Generator: Adobe Illustrator 16.0.3, SVG Export Plug-In . SVG Version: 6.00 Build 0)  -->
<!DOCTYPE svg PUBLIC "-//W3C//DTD SVG 1.1//EN" "http://www.w3.org/Graphics/SVG/1.1/DTD/svg11.dtd">
<svg version="1.1" xmlns="http://www.w3.org/2000/svg" xmlns:xlink="http://www.w3.org/1999/xlink" x="0px" y="0px" width="20px"
	 height="20px" viewBox="0 0 20 20" style="enable-background:new 0 0 20 20;" xml:space="preserve">
<style type="text/css">
<![CDATA[
	.st0{fill:none;stroke:#14487E;stroke-width:1.5;stroke-linecap:round;stroke-miterlimit:10;}
	.st1{fill:#14487E;}
	.st2{fill:none;stroke:#14487E;stroke-width:0.8504;stroke-miterlimit:10;}
	.st3{fill:none;stroke:#00457C;stroke-miterlimit:10;}
	.st4{fill:none;stroke:#14487E;stroke-width:0.2835;stroke-miterlimit:10;}
	.st5{fill:none;stroke:#14487E;stroke-width:0.9921;stroke-linejoin:round;stroke-miterlimit:10;}
	.st6{fill:none;stroke:#14487E;stroke-width:0.9921;stroke-miterlimit:10;}
	.st7{fill:none;stroke:#14487E;stroke-width:1.1339;stroke-linecap:round;stroke-miterlimit:10;}
	.st8{fill:none;stroke:#14487E;stroke-width:0.7087;stroke-miterlimit:10;}
	.st9{fill:#F99D33;}
	.st10{fill:#FFFFFF;stroke:#14487E;stroke-width:0.9921;stroke-miterlimit:10;}
	.st11{fill:#14487E;stroke:#14487E;stroke-width:0.2835;stroke-miterlimit:10;}
	.st12{fill:#FFFFFF;}
	.st13{fill:none;stroke:#14487E;stroke-miterlimit:10;}
	.st14{fill:#FFFFFF;stroke:#00457C;stroke-miterlimit:10;}
	.st15{fill:none;stroke:#14487E;stroke-linecap:round;stroke-linejoin:round;stroke-miterlimit:10;}
]]>
</style>
<g id="Ebene_1">
	<g>
		<path class="st11" d="M10,1.9c3.5,0,6.6,2.3,7.7,5.5l0.9-0.2C17.3,3.6,14,1,10,1l0,0c-5,0-9,4-9,9c0,5,4,9,9,9
			c0,0,0.4-0.1,0.4-0.5S10,18.1,10,18.1c-4.5,0-8.1-3.6-8.1-8.1S5.5,1.9,10,1.9"/>
	</g>
	<g>
		<path class="st1" d="M17.4,6.9h-3.6c-0.3,0-0.5,0.2-0.5,0.5c0,0.3,0.2,0.5,0.5,0.5H19V2.7c0-0.3-0.2-0.5-0.5-0.5
			c-0.3,0-0.5,0.2-0.5,0.5v3.6v0.6H17.4z"/>
	</g>
</g>
<g id="Ebene_2">
</g>
<g id="Pfeile">
</g>
</svg>
