<?xml version="1.0" encoding="utf-8"?>
<!-- Generator: Adobe Illustrator 16.0.3, SVG Export Plug-In . SVG Version: 6.00 Build 0)  -->
<!DOCTYPE svg PUBLIC "-//W3C//DTD SVG 1.1//EN" "http://www.w3.org/Graphics/SVG/1.1/DTD/svg11.dtd">
<svg version="1.1" xmlns="http://www.w3.org/2000/svg" xmlns:xlink="http://www.w3.org/1999/xlink" x="0px" y="0px" width="20px"
	 height="20px" viewBox="0 0 20 20" style="enable-background:new 0 0 20 20;" xml:space="preserve">
<style type="text/css">
<![CDATA[
	.st0{fill:none;stroke:#14487E;stroke-width:1.5;stroke-linecap:round;stroke-miterlimit:10;}
	.st1{fill:#14487E;}
	.st2{fill:none;stroke:#14487E;stroke-width:0.8504;stroke-miterlimit:10;}
	.st3{fill:none;stroke:#00457C;stroke-miterlimit:10;}
	.st4{fill:none;stroke:#14487E;stroke-width:0.2835;stroke-miterlimit:10;}
	.st5{fill:none;stroke:#14487E;stroke-width:0.9921;stroke-linejoin:round;stroke-miterlimit:10;}
	.st6{fill:none;stroke:#14487E;stroke-width:0.9921;stroke-miterlimit:10;}
	.st7{fill:none;stroke:#14487E;stroke-width:1.1339;stroke-linecap:round;stroke-miterlimit:10;}
	.st8{fill:none;stroke:#14487E;stroke-width:0.7087;stroke-miterlimit:10;}
	.st9{fill:#F99D33;}
	.st10{fill:#FFFFFF;stroke:#14487E;stroke-width:0.9921;stroke-miterlimit:10;}
	.st11{fill:#14487E;stroke:#14487E;stroke-width:0.2835;stroke-miterlimit:10;}
	.st12{fill:#FFFFFF;}
	.st13{fill:none;stroke:#14487E;stroke-miterlimit:10;}
	.st14{fill:#FFFFFF;stroke:#00457C;stroke-miterlimit:10;}
	.st15{fill:none;stroke:#14487E;stroke-linecap:round;stroke-linejoin:round;stroke-miterlimit:10;}
]]>
</style>
<g id="Ebene_1">
	<path class="st1" d="M10,1.1c4.9,0,9,4,9,9c0,5-4,9-9,9s-9-4-9-9C1,5.1,5.1,1.1,10,1.1 M10,0C4.5,0,0,4.5,0,10c0,5.5,4.5,10,10,10
		s10-4.5,10-10C20,4.5,15.5,0,10,0L10,0z"/>
	<g>
		<path class="st1" d="M13.4,6.9c0,0.4-0.1,0.8-0.2,1.2C13,8.5,13,8.5,13,8.5c-0.3,0.4-0.8,1.1-1.1,1.5l-0.3,0.3
			c-0.4,0.4-0.8,0.9-0.9,1.1c0,0,0,0,0,0.2c-0.1,0.2-0.1,0.2-0.1,0.2c0,0.2,0,0.7,0,1.1c0,0.4-0.2,0.7-0.5,0.7
			c-0.3,0-0.5-0.3-0.5-0.7c0-0.4,0-1,0-1.4c0,0,0,0,0.1-0.2C9.9,11,9.9,11,9.9,11c0.2-0.3,0.6-0.9,1-1.3l0.3-0.3
			c0.4-0.4,0.8-1,1-1.3c0,0,0,0,0.1-0.3c0.1-0.3,0.2-0.6,0.2-0.9c0-0.4-0.1-0.7-0.2-1c-0.1-0.3-0.3-0.6-0.5-0.8
			c-0.2-0.2-0.5-0.4-0.8-0.5c-0.3-0.1-0.6-0.2-1-0.2c-0.4,0-0.7,0.1-1,0.2C8.7,4.8,8.4,5,8.2,5.2C8,5.4,7.9,5.7,7.7,6
			S7.6,6.3,7.6,6.3c0,0.3-0.3,0.5-0.6,0.5C6.8,6.7,6.6,6.4,6.7,6c0,0,0,0,0.2-0.4C7,5.2,7.2,4.9,7.5,4.6C7.8,4.3,8.2,4,8.6,3.8
			C9,3.7,9.5,3.6,10,3.6c0.5,0,0.9,0.1,1.4,0.3c0.4,0.2,0.8,0.4,1.1,0.7c0.3,0.3,0.5,0.7,0.7,1.1S13.4,6.5,13.4,6.9z"/>
		<path class="st4" d="M13.4,6.9c0,0.4-0.1,0.8-0.2,1.2C13,8.5,13,8.5,13,8.5c-0.3,0.4-0.8,1.1-1.1,1.5l-0.3,0.3
			c-0.4,0.4-0.8,0.9-0.9,1.1c0,0,0,0,0,0.2c-0.1,0.2-0.1,0.2-0.1,0.2c0,0.2,0,0.7,0,1.1c0,0.4-0.2,0.7-0.5,0.7
			c-0.3,0-0.5-0.3-0.5-0.7c0-0.4,0-1,0-1.4c0,0,0,0,0.1-0.2C9.9,11,9.9,11,9.9,11c0.2-0.3,0.6-0.9,1-1.3l0.3-0.3
			c0.4-0.4,0.8-1,1-1.3c0,0,0,0,0.1-0.3c0.1-0.3,0.2-0.6,0.2-0.9c0-0.4-0.1-0.7-0.2-1c-0.1-0.3-0.3-0.6-0.5-0.8
			c-0.2-0.2-0.5-0.4-0.8-0.5c-0.3-0.1-0.6-0.2-1-0.2c-0.4,0-0.7,0.1-1,0.2C8.7,4.8,8.4,5,8.2,5.2C8,5.4,7.9,5.7,7.7,6
			S7.6,6.3,7.6,6.3c0,0.3-0.3,0.5-0.6,0.5C6.8,6.7,6.6,6.4,6.7,6c0,0,0,0,0.2-0.4C7,5.2,7.2,4.9,7.5,4.6C7.8,4.3,8.2,4,8.6,3.8
			C9,3.7,9.5,3.6,10,3.6c0.5,0,0.9,0.1,1.4,0.3c0.4,0.2,0.8,0.4,1.1,0.7c0.3,0.3,0.5,0.7,0.7,1.1S13.4,6.5,13.4,6.9z"/>
	</g>
	<circle class="st1" cx="10.2" cy="15.8" r="0.6"/>
</g>
<g id="Ebene_2">
</g>
<g id="Pfeile">
</g>
</svg>
