<?xml version="1.0" encoding="utf-8"?>
<!-- Generator: Adobe Illustrator 16.0.3, SVG Export Plug-In . SVG Version: 6.00 Build 0)  -->
<!DOCTYPE svg PUBLIC "-//W3C//DTD SVG 1.1//EN" "http://www.w3.org/Graphics/SVG/1.1/DTD/svg11.dtd">
<svg version="1.1" id="Layer_1" xmlns="http://www.w3.org/2000/svg" xmlns:xlink="http://www.w3.org/1999/xlink" x="0px" y="0px"
	 width="513.147px" height="109.931px" viewBox="58.106 335.706 513.147 109.931"
	 enable-background="new 58.106 335.706 513.147 109.931" xml:space="preserve">
<g>
	<path fill="#FFFFFF" d="M305.328,426.264v-47.211c0-3.497-4.708-4.438-4.708-4.438h-10.088v70.75h55.282
		c0,0,4.573,0.538,4.573-4.842v-9.012h-39.41C304.386,431.375,305.328,426.264,305.328,426.264z"/>
	<path fill="#FFFFFF" d="M126.973,407.299c0.404-0.404,0.807-0.941,1.21-1.346c2.287-3.094,3.632-7.263,3.632-11.433
		c0-5.918-2.556-11.433-6.994-15.064c-5.784-4.842-12.375-4.842-17.621-4.842H65.639c-6.725,0-7.532,4.842-7.532,4.842v65.907
		h52.726c7.263,0,12.913-1.614,16.813-4.707c4.708-3.767,7.398-9.819,7.398-16.545C135.043,417.117,132.084,411.064,126.973,407.299
		z M72.902,391.965c0-3.228,2.825-3.632,5.515-3.632h28.919c4.169,0,6.053,0.673,6.86,1.076c1.21,0.807,2.556,2.69,2.556,5.515
		c0,1.345-0.269,2.959-1.749,4.438c-2.152,2.018-5.649,2.152-8.608,2.152H72.902C72.902,401.515,72.902,394.386,72.902,391.965z
		 M118.365,429.223c-1.883,2.018-4.977,2.287-7.667,2.287H73.037v-16.007h33.088c8.205,0,10.895,1.614,11.836,2.556l0.269,0.27
		c0.269,0.269,2.018,2.018,2.018,5.649C120.113,427.07,118.769,428.685,118.365,429.223z"/>
	<path fill="#FFFFFF" d="M370.428,415.369h45.732c3.9,0,3.497-3.363,3.497-3.363v-10.491h-49.229v-7.532v-0.538
		c0-0.403,0-0.941,0-1.21c0-3.228,2.825-3.632,5.516-3.632h1.883h1.21h40.621c0,0,4.035,0.269,4.035-3.766v-10.088h-61.469
		c-7.129,0-6.591,4.977-6.591,4.977v65.908h66.849c0,0,3.767,0.269,3.767-3.901v-10.088h-55.82V415.369z"/>
	<path fill="#FFFFFF" d="M220.724,432.451c9.012,0,22.866,0,28.111,0c0.538,0,1.211,0,2.018,0
		c5.515-0.135,18.562,0.269,19.772-6.994c0.135-0.404,0.135-0.808,0.135-1.076c-0.269-2.825-1.614-7.936-20.714-8.743
		c-10.492-0.403-18.024-0.807-24.346-3.228c-7.667-2.825-11.702-8.205-11.836-15.872v-0.673c0-13.047,10.76-20.31,30.129-21.251
		c1.076,0,2.152-0.135,3.362-0.135h1.345h0.538c9.012,0,17.754,0,32.819,0.135v8.877c0,4.842-5.649,4.438-5.649,4.438
		c-12.375,0-20.31,0-26.094,0c-0.538,0-1.211,0-2.018,0h-0.807c-0.942,0-2.152,0-3.632,0.134
		c-5.784,0.269-15.064,1.211-15.064,6.726c0,0.403,0,0.807,0.134,1.076c0.538,2.018,2.825,4.708,18.562,5.381h0.941
		c10.76,0.403,19.234,2.018,25.825,4.842c7.801,3.362,11.702,9.415,11.702,17.89c0,0.403,0,0.941,0,1.345v0.135l-0.134,0.807
		c-0.672,7.802-4.573,18.428-32.416,19.1l-0.134,0.135h-0.942h-1.076c-9.685,0-19.369,0-30.802,0l-4.573-9.146
		C215.881,436.352,214.671,432.451,220.724,432.451z"/>
	<path fill="#FFFFFF" d="M537.618,350.806c-6.456-6.456-14.93-7.129-14.93-7.129c-16.948,7.263-33.896,17.486-33.896,17.486
		s25.422-11.433,51.65-6.188C540.309,355.11,538.829,352.151,537.618,350.806z"/>
	<path fill="#FFFFFF" d="M569.228,343.139c-7.398-11.298-27.574-7.397-40.486-3.362c3.766,1.076,24.211,2.69,16.813,33.895
		c-4.439,18.427-17.621,40.218-17.083,41.293C529.145,416.579,582.14,362.912,569.228,343.139z"/>
	<path fill="#FFFFFF" d="M488.39,416.714c3.228-0.673,6.591-1.883,9.415-4.17c1.749-1.479,3.229-3.094,4.438-4.977
		c0.135-0.135,0.135-0.269,0.27-0.403c1.883-3.229,2.959-6.994,2.959-11.164c0-7.801-3.9-14.795-10.088-18.427
		c-5.246-2.959-11.299-2.959-15.737-2.959H437.95c-5.246,0-5.515,4.169-5.515,4.169v66.58h10.895c0,0,3.767,0.135,3.767-4.438
		v-23.27h18.158c0,0,0.269,0,0.672,0c0.135,0,1.479,0,3.363,0l19.234,21.925l0,0c1.345,1.613,2.286,2.556,2.286,2.556
		s2.556,3.093,7.936,3.093h15.064L488.39,416.714z M447.097,403.667v-11.299c0,0-0.538-4.035,4.842-4.035h27.978
		c3.093,0,5.918,0,7.936,1.614c1.076,0.807,2.421,2.825,2.421,5.649c0,2.151-0.673,4.169-1.883,5.38
		c-2.287,2.421-6.591,2.69-12.375,2.69H447.097L447.097,403.667z"/>
	<path fill="#FFFFFF" d="M179.027,374.614h-4.573h-1.345c-6.322,0-6.725,0.941-8.743,5.111c-4.035,8.474-12.509,23.673-19.638,38.2
		c3.766-2.96,9.953-6.053,18.965-6.591l9.281-16.948l10.626,21.252h-21.118l0,0c-12.509,1.076-18.696,7.397-20.714,10.223
		c-4.842,9.818-8.474,17.082-8.474,17.082s-1.479,2.421,1.614,2.421h13.047l5.38-11.029c0,0,2.421-5.111,8.743-5.111h28.381
		c0,0,4.842,9.416,6.187,12.24c1.076,2.152,1.883,3.9,5.784,3.9h2.421c3.631,0,6.86,0,9.684,0L179.027,374.614z"/>
</g>
</svg>
