<?xml version="1.0" encoding="utf-8"?>
<!-- Generator: Adobe Illustrator 16.0.3, SVG Export Plug-In . SVG Version: 6.00 Build 0)  -->
<!DOCTYPE svg PUBLIC "-//W3C//DTD SVG 1.1//EN" "http://www.w3.org/Graphics/SVG/1.1/DTD/svg11.dtd">
<svg version="1.1" xmlns="http://www.w3.org/2000/svg" xmlns:xlink="http://www.w3.org/1999/xlink" x="0px" y="0px" width="20px"
	 height="20px" viewBox="0 0 20 20" style="enable-background:new 0 0 20 20;" xml:space="preserve">
<style type="text/css">
<![CDATA[
	.st0{fill:none;stroke:#14487E;stroke-width:1.5;stroke-linecap:round;stroke-miterlimit:10;}
	.st1{fill:#14487E;}
	.st2{fill:none;stroke:#14487E;stroke-width:0.8504;stroke-miterlimit:10;}
	.st3{fill:none;stroke:#00457C;stroke-miterlimit:10;}
	.st4{fill:none;stroke:#14487E;stroke-width:0.2835;stroke-miterlimit:10;}
	.st5{fill:none;stroke:#14487E;stroke-width:0.9921;stroke-linejoin:round;stroke-miterlimit:10;}
	.st6{fill:none;stroke:#14487E;stroke-width:0.9921;stroke-miterlimit:10;}
	.st7{fill:none;stroke:#14487E;stroke-width:1.1339;stroke-linecap:round;stroke-miterlimit:10;}
	.st8{fill:none;stroke:#14487E;stroke-width:0.7087;stroke-miterlimit:10;}
	.st9{fill:#F99D33;}
	.st10{fill:#FFFFFF;stroke:#14487E;stroke-width:0.9921;stroke-miterlimit:10;}
	.st11{fill:#14487E;stroke:#14487E;stroke-width:0.2835;stroke-miterlimit:10;}
	.st12{fill:#FFFFFF;}
	.st13{fill:none;stroke:#14487E;stroke-miterlimit:10;}
	.st14{fill:#FFFFFF;stroke:#00457C;stroke-miterlimit:10;}
	.st15{fill:none;stroke:#14487E;stroke-linecap:round;stroke-linejoin:round;stroke-miterlimit:10;}
]]>
</style>
<g id="Ebene_1">
	<path class="st1" d="M4.5,6.5C4.8,6.5,5,6.7,5,7c0,0.3-0.2,0.5-0.5,0.5S4,7.3,4,7C4,6.7,4.2,6.5,4.5,6.5z"/>
	<path class="st1" d="M6,7c0-0.3,0.2-0.5,0.5-0.5S7,6.7,7,7c0,0.3-0.2,0.5-0.5,0.5S6,7.3,6,7z"/>
</g>
<g id="Ebene_2">
	<path class="st13" d="M18.5,15h-17c-0.5,0-1-0.5-1-1V5c0-0.5,0.5-1,1-1h17c0.5,0,1,0.5,1,1v9C19.5,14.5,19,15,18.5,15z"/>
	<rect x="4.4" y="0.6" class="st6" width="11.3" height="3.4"/>
	<rect x="4.4" y="10.9" class="st10" width="11.3" height="8.6"/>
	<line class="st8" x1="6.1" y1="13.1" x2="14.1" y2="13.1"/>
	<line class="st8" x1="6.1" y1="15.3" x2="14.1" y2="15.3"/>
	<line class="st8" x1="6.1" y1="17.4" x2="14.1" y2="17.4"/>
</g>
<g id="Pfeile">
</g>
</svg>
